<svg>
<symbol fill="none" xmlns="http://www.w3.org/2000/svg" viewBox="0 0 42 42" id="logo">
    <path d="M0 21A21 21 0 1021 0v21H0z" fill="#1ECE7A"></path>
    <path d="M31.563 21a10.563 10.563 0 00-21.125 0h21.125z" fill="#fff"></path>
  </symbol>
  <!-- advantages -->
  <symbol fill="none" xmlns="http://www.w3.org/2000/svg" viewBox="0 0 35 33" id="alarm">
    <path fill-rule="evenodd" clip-rule="evenodd" d="M16.836 1.167c0-.368.297-.667.664-.667.367 0 .664.299.664.667V6.5a.665.665 0 01-.664.667.665.665 0 01-.664-.667V1.167zm-6.38 7.986L6.7 5.38a.662.662 0 00-.94 0 .669.669 0 000 .943l3.757 3.771c.26.26.68.26.94 0a.669.669 0 000-.942zM28.3 5.38c.26-.26.68-.26.94 0a.67.67 0 010 .943l-3.757 3.771c-.26.26-.68.26-.94 0a.669.669 0 010-.942L28.3 5.38zm-.968 21.786h.793c1.098 0 1.992.897 1.992 2v2.666a.665.665 0 01-.664.667H5.547a.665.665 0 01-.664-.667v-2.666c0-1.103.894-2 1.992-2h.793L9.83 15a4.651 4.651 0 014.574-3.834h6.192a4.652 4.652 0 014.574 3.832l2.162 12.168zM14.404 12.5a3.322 3.322 0 00-3.267 2.737l-2.12 11.93h16.966l-2.12-11.932a3.322 3.322 0 00-3.267-2.735h-6.192zM6.211 31.167h22.578v-2a.666.666 0 00-.664-.667H6.875c-.366 0-.664.3-.664.667v2zm15.273-14c0-.368.298-.667.664-.667a.666.666 0 010 1.333.666.666 0 01-.664-.666zm2.805 7.88l-.974-5.383a.664.664 0 10-1.307.238l.975 5.384a.664.664 0 101.306-.239zm3.836-8.547h5.71c.368 0 .665.299.665.667a.665.665 0 01-.664.666h-5.711a.665.665 0 01-.664-.666c0-.369.297-.667.664-.667zm-21.25 0h-5.71a.665.665 0 00-.665.667c0 .368.297.666.664.666h5.711a.665.665 0 00.664-.666.665.665 0 00-.664-.667z" fill="#D62642"></path>
  </symbol>
  <symbol fill="none" xmlns="http://www.w3.org/2000/svg" viewBox="0 0 35 33" id="diagnostic">
    <path fill-rule="evenodd" clip-rule="evenodd" d="M31.1 15.11a3.944 3.944 0 013.359 3.321c.313 2.143-1.191 4.132-3.36 4.441-2.168.31-4.18-1.177-4.492-3.32-.313-2.144 1.191-4.133 3.36-4.442v-1.017c0-2.193-1.653-3.977-3.684-3.977-1.973 0-3.627 1.73-3.683 3.856v11.013c0 4.141-3.178 7.515-7.084 7.515-3.905 0-7.083-3.37-7.083-7.515v-.957c-.821 0-1.7-.588-1.7-2.24v-1.41C3.098 19.463.5 16.374.5 12.87v-1.165h1.133V4.422A2.81 2.81 0 013.99 1.668a1.714 1.714 0 013.214-.097 1.682 1.682 0 01-.964 2.19 1.714 1.714 0 01-2.214-.955 1.684 1.684 0 00-1.258 1.616v7.282h1.7v1.184a4.461 4.461 0 003.254 4.18 5.21 5.21 0 003.117 0 4.464 4.464 0 003.262-4.18v-1.184h1.133l-.025-7.287a1.684 1.684 0 00-1.235-1.603 1.683 1.683 0 01-1.044.965 1.695 1.695 0 01-2.133-1.07A1.668 1.668 0 0111.88.6a1.695 1.695 0 012.132 1.07 2.813 2.813 0 012.332 2.742l.023 7.291H17.5v1.168c0 3.5-2.597 6.587-6.233 7.507v1.409c0 1.651-.879 2.24-1.7 2.24v.957c0 3.525 2.668 6.395 5.95 6.395 3.28 0 5.95-2.866 5.95-6.395v-11.04l.032-.006h-.033c.078-2.727 2.237-4.945 4.817-4.945 2.656 0 4.816 2.288 4.816 5.098v1.018zM11.832 2.181c0 .31.254.56.567.56.313 0 .566-.25.566-.56 0-.31-.253-.56-.566-.56a.563.563 0 00-.567.56zm-5.666 0c0-.31-.254-.56-.567-.56a.563.563 0 00-.567.56c0 .31.254.56.567.56.313 0 .567-.25.567-.56zM1.633 12.825v.044c0 3.117 2.43 5.859 5.78 6.521a8.174 8.174 0 003.173.001c3.35-.663 5.78-3.405 5.78-6.522v-.044h-1.133v.063c-.043 2.436-1.683 4.561-4.048 5.246a6.375 6.375 0 01-3.807 0c-2.364-.686-4.002-2.81-4.045-5.246v-.063h-1.7zm6.234 8.963c0 .336.056 1.12.566 1.12h1.133c.51 0 .567-.784.567-1.12v-1.19c-.024.004-.049.006-.073.008a9.19 9.19 0 01-1.046.061h-.029c-.272 0-.543-.017-.81-.04l-.043-.004a5.475 5.475 0 01-.128-.012l-.055-.005a1.72 1.72 0 01-.082-.007v1.189zM27.7 18.987c0 1.547 1.268 2.8 2.833 2.8 1.564-.001 2.831-1.254 2.833-2.8 0-1.547-1.268-2.801-2.833-2.801-1.565 0-2.833 1.254-2.833 2.8zm1.133 0c0-.928.761-1.68 1.7-1.68s1.7.752 1.7 1.68a1.69 1.69 0 01-1.7 1.68 1.69 1.69 0 01-1.7-1.68zm1.133 0c0 .309.254.56.567.56a.564.564 0 00.567-.56c0-.31-.254-.56-.567-.56a.563.563 0 00-.567.56z" fill="#2682D6"></path>
  </symbol>
  <symbol fill="none" xmlns="http://www.w3.org/2000/svg" viewBox="0 0 37 37" id="insurance">
    <path fill-rule="evenodd" clip-rule="evenodd" d="M27.735 4.49L18.733.55a.6.6 0 00-.48 0L9.251 4.49a.6.6 0 00-.36.55v9.42a6.608 6.608 0 002.737 5.344l6.221 4.486c.384.278.904.278 1.288 0l6.222-4.485a6.608 6.608 0 002.736-5.345V5.04a.6.6 0 00-.36-.55zm-.84 9.97a5.405 5.405 0 01-2.238 4.371l-6.164 4.445-6.163-4.445a5.405 5.405 0 01-2.239-4.371V5.432l8.402-3.677 8.402 3.677v9.028zM18.253 3.17l-6.6 2.89a.6.6 0 00-.361.55v7.85a4.2 4.2 0 001.74 3.399l5.11 3.685a.6.6 0 00.703 0l5.11-3.685a4.2 4.2 0 001.74-3.399V6.61a.6.6 0 00-.36-.55l-6.601-2.89a.6.6 0 00-.48 0zm6.242 3.831v7.46a3 3 0 01-1.242 2.425l-4.76 3.432-4.758-3.432a3 3 0 01-1.243-2.425V7l6.002-2.626 6 2.626zM4.164 17.387l1.298 3.033a2.761 2.761 0 013.28.17 11.873 11.873 0 003.435 2.204 4.32 4.32 0 012 1.46 6.286 6.286 0 011.316 3.93V29.3a1.2 1.2 0 011.2 1.2v4.8a1.2 1.2 0 01-1.2 1.2H8.89a1.2 1.2 0 01-1.2-1.2v-4.8c0-.304.117-.596.325-.816l-3.698-3.699a6.373 6.373 0 01-1.303-1.88L.663 18.932a1.912 1.912 0 113.5-1.545zM8.89 35.3h6.602v-4.8H8.89v4.8zm5.402-7.117a5.09 5.09 0 00-1.053-3.18 3.152 3.152 0 00-1.443-1.07 12.797 12.797 0 01-3.829-2.424 1.56 1.56 0 00-1.943-.032c.216.323.464.625.74.9l2.74 2.741a.6.6 0 11-.848.849l-2.741-2.742a7.08 7.08 0 01-1.514-2.235L3.06 17.86a.712.712 0 00-1.255-.105.713.713 0 00-.05.681l2.352 5.173a5.19 5.19 0 001.06 1.528L9.33 29.3h4.963v-1.117zm-.6 4.117h-.6a.6.6 0 100 1.2h.6a.6.6 0 000-1.2zm22.631-13.368l-2.352 5.173a6.373 6.373 0 01-1.302 1.88l-3.699 3.699c.208.22.325.512.325.816v4.8a1.2 1.2 0 01-1.2 1.2h-6.601a1.2 1.2 0 01-1.2-1.2v-4.8a1.2 1.2 0 011.2-1.2v-1.117a6.286 6.286 0 011.315-3.932 4.321 4.321 0 012-1.458 11.869 11.869 0 003.436-2.205 2.768 2.768 0 013.283-.18l1.296-3.02a1.913 1.913 0 113.5 1.544zM21.494 35.3h6.602v-4.8h-6.601v4.8zm1.2-6h4.963l4.162-4.163a5.19 5.19 0 001.059-1.528l2.352-5.172a.713.713 0 10-1.305-.577l-1.342 3.13a7.077 7.077 0 01-1.514 2.236l-2.741 2.741a.6.6 0 01-.849-.848l2.742-2.742c.277-.276.526-.58.743-.906a1.56 1.56 0 00-1.947.038 12.79 12.79 0 01-3.83 2.424 3.154 3.154 0 00-1.44 1.07 5.09 5.09 0 00-1.052 3.18V29.3zm1.2 3h-.6a.6.6 0 000 1.2h.6a.6.6 0 100-1.2zm-9.482-18.96a.6.6 0 01.84-.12l1.893 1.42 4.45-6.673a.6.6 0 01.998.666l-4.801 7.2a.6.6 0 01-.86.147l-2.4-1.8a.6.6 0 01-.12-.84z" fill="#1ECE7A"></path>
  </symbol>
  <symbol fill="none" xmlns="http://www.w3.org/2000/svg" viewBox="0 0 37 37" id="support">
    <path fill-rule="evenodd" clip-rule="evenodd" d="M34.796.5h-8.148c-.963 0-1.746.782-1.746 1.742v4.645c0 .96.783 1.742 1.746 1.742h1.554l-.602 3.502 5.617-3.502h1.579c.962 0 1.745-.782 1.745-1.742V2.242c0-.96-.783-1.742-1.745-1.742zm.581 6.387c0 .32-.26.58-.581.58h-1.913l-3.697 2.305.397-2.304h-2.935a.582.582 0 01-.582-.58V2.241c0-.32.261-.58.582-.58h8.148c.32 0 .581.26.581.58v4.645zm-5.594 24.968l-1.348-4.033a4.071 4.071 0 00-3.136-2.714l-3.89-.706v-.3a5.855 5.855 0 001.736-1.537h1.175c.962 0 1.745-.782 1.745-1.742v-6.968c0-4.162-3.394-7.548-7.565-7.548-4.172 0-7.566 3.386-7.566 7.548v4.064c0 1.12.798 2.056 1.856 2.275a5.818 5.818 0 002.8 3.908v.3l-3.89.706a4.07 4.07 0 00-3.136 2.714l-.233.697-1.982-1.978a.58.58 0 010-.821l2.299-2.293-4.315-4.305-2.598 2.592a4.034 4.034 0 00-1.193 2.874c0 1.086.424 2.106 1.193 2.874l7.866 7.847a4.053 4.053 0 002.88 1.191 4.037 4.037 0 002.863-1.173l2.834-2.592-.884-.88h12.489zM24.9 20.823c0 .32-.26.58-.581.58h-.49c.169-.383.297-.788.38-1.21.249-.05.478-.15.691-.274v.904zm-.581-1.904v-2c.346.202.581.572.581 1 0 .428-.235.799-.581 1zm-11.64 0a1.157 1.157 0 01-.582-1c0-.428.236-.798.582-1v2zm0-3.903v.663a2.312 2.312 0 00-.582.24v-2.064c0-3.522 2.872-6.387 6.402-6.387 3.53 0 6.401 2.865 6.401 6.387v2.065a2.289 2.289 0 00-.581-.24v-.664h-.582a6.41 6.41 0 01-4.557-1.883l-.681-.68-.682.68a6.411 6.411 0 01-4.556 1.883h-.582zm1.164 4.065v-2.926a7.553 7.553 0 004.656-2.063 7.55 7.55 0 004.655 2.063v2.926c0 .846-.231 1.638-.63 2.322H18.5v1.162h3.069a4.637 4.637 0 01-3.07 1.16c-2.566 0-4.655-2.083-4.655-4.644zm6.402 5.538v.028L18.5 26.389l-1.746-1.742v-.027a5.825 5.825 0 003.492 0zM9.667 28.19a2.909 2.909 0 012.24-1.94l4.069-.736L18.5 28.03l2.523-2.518 4.068.737a2.908 2.908 0 012.24 1.94l.837 2.504H16.13l-2.266-2.262-2.52 2.273a.595.595 0 01-.822 0L9.25 29.437l.416-1.248zm-5.335-7.425l2.67 2.663-.633.63L3.7 21.395l.632-.631zM14.538 34.49a2.9 2.9 0 01-2.058.85 2.897 2.897 0 01-2.058-.85l-7.865-7.85a2.88 2.88 0 01-.852-2.052c0-.776.302-1.505.852-2.053l.32-.32 2.669 2.663-.021.02c-.68.68-.68 1.785 0 2.465l4.173 4.163c.33.33.768.51 1.235.51.467 0 .905-.18 1.214-.49l.043-.038 2.682 2.675-.335.305zm1.193-1.091l-2.676-2.67.769-.693 2.67 2.665-.763.698zM27.23 2.823h6.984v1.16H27.23v-1.16zm4.656 2.322H27.23v1.161h4.656v-1.16zm1.163 0h1.164v1.161H33.05v-1.16zM18.5 2.242c-7.603 0-14.154 5.248-15.857 12.568L1.54 12.976l-.998.597 2.045 3.401 3.409-2.04-.599-.997-1.577.944C5.47 8.185 11.505 3.403 18.5 3.403c1.529 0 3.037.227 4.483.674l.345-1.11a16.32 16.32 0 00-4.828-.725zm14.35 9.074l3.41 2.04-.6.996-1.71-1.023c.56 1.66.846 3.395.846 5.171a16.27 16.27 0 01-3.635 10.237l-.904-.732a15.11 15.11 0 003.375-9.505c0-1.677-.274-3.314-.81-4.88l-1.018 1.695-.998-.598 2.045-3.401z" fill="#D69026"></path>
  </symbol>
  <!-- advantages -->
  <symbol fill="none" xmlns="http://www.w3.org/2000/svg" viewBox="0 0 384 391" id="man">
    <path d="M371.715 140.301a64.668 64.668 0 01.953 30.093c-2.055 9.976-6.439 19.413-12.846 27.651-9.566 12.071-23.202 21.097-31.695 33.808-18.355 27.443-8.502 64.917-25.338 93.187-14.073 23.65-43.227 35.267-70.298 45.239-21.257 7.824-42.727 15.697-65.26 18.851-22.533 3.153-46.766 1.153-66.291-9.716-16.102-8.938-27.932-23.107-38.858-37.257C35.223 307.343 10.948 269.435 2.7 227.32c-8.248-42.115 2.04-89.354 35.86-118.492 16.465-14.19 38.03-23.974 49.647-41.82 12.191-18.721 12.361-44.844 31.312-57.89 6.994-4.819 15.688-7.056 24.318-8.12 20.778-2.48 41.866 1.282 60.169 10.731 18.568 9.647 33.81 24.98 54.036 31.148 26.179 7.991 59.776 1.852 77.175 25.502 13.976 19.017 30.291 49.771 36.498 71.922z" fill="#F2F5F9"></path>
    <path fill-rule="evenodd" clip-rule="evenodd" d="M192.935 86.89c6.476 3.626 12.839 5.379 15.825 4.663 7.49-1.793 8.178-27.25 2.383-37.285-5.794-10.035-35.585-14.41-37.086 5.474-.521 6.901 2.597 13.06 7.205 18.085L173 113.607h24l-4.065-26.717z" fill="#F7C2B2"></path>
    <path fill-rule="evenodd" clip-rule="evenodd" d="M179.418 82.303c-3.012-12.451-11.593-20.939-10.283-26.504 1.311-5.565 6.986-6.921 6.986-6.921s2.936-11.034 18.935-9.386c11.043-1.029 20.164-4.502 27.741-1.647 5.68 4.127 2.646 17.497-9.974 19.911-3.877 0-4.777 1.838-11.247 4.07-3.08 1.062-4.406 6.587-4.406 6.587h-2.924s-4.257-6.557-8.395-4.819c-4.138 1.738-1.881 8.443-1.881 8.443l-1.441 10.266h-3.111z" fill="#191847"></path>
    <path d="M90 269.747c0-22.091 17.909-40 40-40h67c22.091 0 40 17.909 40 40v35.211c0 22.091-17.909 40-40 40h-67c-22.091 0-40-17.909-40-40v-35.211z" fill="#997659"></path>
    <path fill-rule="evenodd" clip-rule="evenodd" d="M336.159 340.312c-19.716-22.369-33.056-38.953-40.021-49.75-11.925-18.489-21.685-34.941-24.765-41.225-7.345-14.986 16.909-22.003 22.398-15.013 8.308 10.579 26.051 43.87 53.229 99.872l-10.841 6.116z" fill="#F6C2B2"></path>
    <path fill-rule="evenodd" clip-rule="evenodd" d="M315.193 326.482c-10.868 4.097-23.035-1.092-27.601-11.772l-28.527-66.718c-7.848-15.644 30.051-25.927 35.818-18.646 8.063 10.177 22.961 38.811 34.131 60.461 6.738 13.062-.068 31.492-13.821 36.675z" fill="#33B074"></path>
    <path fill-rule="evenodd" clip-rule="evenodd" d="M198.033 316.598c7.148-9.687 33.146-42.277 47.306-55.761 4.069-3.875 8.04-7.595 11.795-11.06 11.162-10.302 33.39 7.013 22.248 16.396-27.747 23.368-68.231 54.913-71.613 57.726-4.741 3.942-14.228-1.213-9.736-7.301z" fill="#F6C2B2"></path>
    <path fill-rule="evenodd" clip-rule="evenodd" d="M207.035 316.887c-4.008-2.149-9.324-4.019-11.97-.298-.06.085-.115.168-.166.248-2.303 3.706-.384 8.264 3.462 10.326 8.959 4.807 24.75 13.277 34.273 18.385 4.737 2.541 14.042-.173 9.67-3.232a389.482 389.482 0 01-3.572-2.527 23.109 23.109 0 01-4.758-4.58l-13.18-16.871c-1.24-1.587-3.638-1.879-5.354-.652-.778.557-1.74.827-2.687.699-1.616-.218-4.18-.673-5.718-1.498zm129.502 20.717c-4.65 0-10.537.944-10.537 5.594 0 4.289 3.989 7.335 8.278 7.335h40.095c5.335 0 11.692-6.689 6.392-7.292-1.735-.197-3.255-.38-4.485-.533a25.231 25.231 0 01-6.54-1.746l-20.62-8.541a3.75 3.75 0 00-4.863 1.944c-.382.86-1.071 1.549-1.953 1.876-1.516.562-3.988 1.363-5.767 1.363z" fill="#AFB9C5"></path>
    <path fill-rule="evenodd" clip-rule="evenodd" d="M246.014 252.33a1.202 1.202 0 00-.302-.074c-2.873-.435-46.114-6.987-61.131-9.447-28.735-4.708-37.658-18.817-33.421-49.262a2.963 2.963 0 012.942-2.542h51.437c.262 0 .48.022.732.094 11.921 3.42 88.734 35.26 89.883 35.736.037.015.032.014.068.031 9.467 4.418 7.696 17.335 5.958 21.596-.096.233-38.467 61.258-46.66 74.288-.865 1.376-2.642 1.77-4.041.942l-38.942-23.05a3 3 0 01-.771-4.509l33.979-40.512c.133-.159.25-.33.336-.518.306-.67.946-2.345-.067-2.773z" fill="#36C982"></path>
    <path fill-rule="evenodd" clip-rule="evenodd" d="M293.082 148.851l-22.357 30.34-12.419-13.117 24.69-19.612c3.002-3.97 5.335-7.47 7.159-10.207 2.924-4.386 4.54-6.811 5.51-6.069 1.315 1.006.738 2.51.207 3.898-.424 1.107-.82 2.14-.207 2.787.892.942 3.201-.293 6.13-1.86 1.609-.861 3.404-1.821 5.255-2.577 5.222-2.13 4.495.597 3.614 2.114-4.329 4.83-10.189 9.598-17.582 14.303zM131 173.132l-20.492-3.777c-13.897 34.033-22.182 52.683-24.856 55.949-1.96 2.396-14.05 8.566-22.232 11.861-3.285 1.323-2.58 3.902-1.616 4.727 6.076 5.204 11.725 3.38 17.874 1.394 1.78-.575 3.603-1.163 5.49-1.598 4.882-1.127 6.368 1.206 7.772 3.411 1.244 1.952 2.423 3.804 5.84 3.065a99.199 99.199 0 00-.553-2.074c-1.332-4.869-3.296-12.05-.382-16.222 1.495-2.141 12.547-21.053 33.155-56.736z" fill="#F6C2B2"></path>
    <path d="M288.759 146.075a4.534 4.534 0 00-.121 3.644c.471 1.182 1.42 2.146 2.645 2.689a28.183 28.183 0 0010.279 2.481c2.429.524 5.769-1.232 7.478-4.534 1.708-3.301 10.252-19.442 13.765-28.088a4.617 4.617 0 00-.121-3.894 4.975 4.975 0 00-1.276-1.595 5.424 5.424 0 00-1.852-.996l-10.372-2.087a5.595 5.595 0 00-3.729.217c-1.172.496-2.107 1.377-2.624 2.472l-14.072 29.691z" fill="#3D3D54"></path>
    <path d="M319.773 120.57l-15.309 30.07a1.85 1.85 0 01-.918.794c-.395.16-.835.19-1.25.087l-9.465-3.139c-.361-.12-.756-.174-1.072-.379a1.214 1.214 0 01-.382-.393 1.112 1.112 0 01-.06-1.033l14.35-29.155c.2-.354.524-.634.918-.794.394-.16.835-.19 1.25-.087l11.001 2.382c.19.031.37.103.527.208.156.106.284.244.374.402a1.117 1.117 0 01.036 1.037z" fill="#C3DBEE"></path>
    <path fill-rule="evenodd" clip-rule="evenodd" d="M186.606 103.68c.003-3.218 2.411-5.93 5.602-6.438 1.983-.316 4.009.252 5.383 1.691 17.22 18.051 24.783 55.787 36.823 60.965 10.711 4.607 19.131-.471 35.372-6.408 3.468-1.268 7.307-.693 10.288 1.42 5.57 3.948 6.435 11.936 1.204 16.451-22.253 19.209-50.919 27.321-64.618 19.629-23.522-13.206-30.079-58.26-30.054-87.31z" fill="#446EC1"></path>
    <path fill-rule="evenodd" clip-rule="evenodd" d="M149 199.086h76.511c3.497 0 2.838-4.69 2.332-7.057-5.832-27.316-28.602-56.762-28.602-95.647l-22.069-3.215c-18.255 27.277-24.567 60.861-28.172 105.919z" fill="#F2F6F9"></path>
    <path fill-rule="evenodd" clip-rule="evenodd" d="M176.722 93.167c-.638 0-1.269.168-1.821.488-46.11 26.687-75.072 67.027-86.885 121.019-1.24 5.672 2.59 11.135 8.304 12.175 3.56.648 7.219-.549 9.559-3.31 9.2-10.849 20.074-26.63 32.625-47.344.415-.685 1.517-.204 1.299.567-6.277 22.165 11.791 41.836 34.828 41.836 15.913 0 30.037-9.911 29.64-25.819-.835-33.466-14.043-80.41-18.401-95.062-.814-2.735-3.324-4.55-6.177-4.55-.146 0-.291.005-.435.014-.838.056-1.696-.014-2.536-.014z" fill="#5079CA"></path>
  </symbol>
  <symbol fill="none" xmlns="http://www.w3.org/2000/svg" viewBox="0 0 413 362" id="woman">
    <path opacity=".1" d="M180.386 49.395c18.538-6.894 41.106-.965 60.379 7.683 60.531 27.167 104.629 78.737 139.666 131.276 12.685 19.025 24.735 38.886 29.504 60.124 9.71 43.226-15.616 87.976-58.688 103.658-14.648 5.338-30.74 7.527-46.856 8.746-28.659 2.172-58.332 1.31-86.76-6.734-20.275-5.749-39.453-14.996-57.847-25.212-51.371-28.547-98.285-65.618-132.065-110.902-14.816-19.862-27.35-42.253-27.71-65.17-.362-22.917 14.564-45.945 39.123-49.841 10.154-1.61 20.894.065 31.372 1.79 15.427 2.542 31.063 5.215 46.314 4.106 15.756-1.154 36.247-7.313 39.12-22.362 3.041-16.158 5.935-30.276 24.448-37.162z" fill="#008EFF"></path>
    <path d="M359.654 87.569a3 3 0 01-3 2.998h-9.551a3 3 0 01-3-3v-9.33a3 3 0 013-3h9.558a3 3 0 013 3.002l-.007 9.33zm-.227-20.116h-12.099c-1.657 0-3.017-1.361-2.871-3.012 1.826-20.719 22.503-20.083 22.503-34.488 0-8.302-6.791-14.952-15.088-14.952-7.251 0-13.35 5.477-14.772 12.21-.343 1.62-1.657 2.978-3.313 2.978h-9.093c-1.655 0-3.013-1.343-2.851-2.99a30.154 30.154 0 018.678-18.372A30.117 30.117 0 01351.872 0c16.666 0 30.173 13.303 30.173 29.953 0 18.84-22.619 20.989-22.629 37.489 0 .006.005.011.011.011z" fill="#1ECE7A"></path>
    <path opacity=".1" d="M115.382 201.387h-7.322v-7.235h7.322v7.235zm-.111-10.881h-7.1c0-11.21 10.65-10.557 10.65-17.657a7.079 7.079 0 00-2.092-4.993 7.07 7.07 0 00-5.008-2.049 7.255 7.255 0 00-7.084 7.145h-7.1a14.219 14.219 0 014.203-9.914 14.198 14.198 0 0119.921-.077 14.218 14.218 0 014.281 9.88c-.021 8.869-10.671 9.879-10.671 17.648v.017zm218.305 56.459h-7.322v-7.215h7.322v7.215zm-.107-10.878h-7.1c0-11.214 10.65-10.557 10.65-17.657a7.059 7.059 0 00-2.092-4.991 7.052 7.052 0 00-5.008-2.047 7.251 7.251 0 00-7.12 7.153h-7.1a14.212 14.212 0 014.203-9.913 14.199 14.199 0 0119.921-.078 14.215 14.215 0 014.28 9.881c.012 8.869-10.634 9.883-10.634 17.652zM204.53 162.67h-5.306v-5.219h5.306v5.219zm-.078-7.888h-5.146c0-8.123 7.719-7.65 7.719-12.791a5.135 5.135 0 00-1.517-3.617 5.119 5.119 0 00-3.629-1.483 5.26 5.26 0 00-5.147 5.182h-5.146a10.298 10.298 0 0110.252-10.34 10.294 10.294 0 0110.333 10.258c-.008 6.426-7.719 7.161-7.719 12.791zm90.712 15.254h-3v-2.956h3v2.956zm-.045-4.455h-2.926c0-4.591 4.363-4.324 4.363-7.231a2.887 2.887 0 00-.853-2.044 2.865 2.865 0 00-2.053-.83 2.972 2.972 0 00-2.91 2.927h-2.909a5.82 5.82 0 019.862-4.056 5.824 5.824 0 011.772 4.011c.017 3.61-4.346 4.041-4.346 7.223zm35.912 158.958h-3v-2.957h3v2.957zm-.045-4.456h-2.91c0-4.595 4.367-4.324 4.367-7.231a2.896 2.896 0 00-2.91-2.874 2.964 2.964 0 00-2.91 2.928h-2.909a5.82 5.82 0 019.862-4.057 5.82 5.82 0 011.772 4.011c.017 3.626-4.346 4.041-4.346 7.223h-.016z" fill="#008EFF"></path>
    <path d="M355.936 132.07a21.136 21.136 0 00-21.145-9.965v15.138h9.187l7.19-1.82 4.768-3.353z" fill="#4C4981"></path>
    <path opacity=".1" d="M355.936 132.07a21.136 21.136 0 00-21.145-9.965v15.138h9.187l7.19-1.82 4.768-3.353z" fill="#000"></path>
    <path d="M334.102 126.114l11.26 7.892s.095-1.576.381-3.734c.55-4.158 1.741-5.877 4.536-11.394 4.88-9.632 18.463-4.214 25.766-23.868-13.216-3.192-33.305 12.168-33.305 12.168s-1.29.445-3.352 4.708c-1.057 2.242-2.506 6.061-3.595 9.182a134.352 134.352 0 00-1.691 5.046z" fill="#F6C2B2"></path>
    <path d="M244.146 138.269l-1.279-.603-3.595 4.105 2.939 6.273 5.012-2.01-1.163-5.015-1.914-2.75z" fill="#4C4981"></path>
    <path d="M207.14 169.191l2.22 2.401 1.449 1.566 8.458 9.097 21.855 2.465 11.63-3.11 2.876-.772s0-5.84-.518-12.843c-.74-8.981-2.506-19.888-6.724-22.86a16.808 16.808 0 01-4.917-6.231 35.145 35.145 0 01-2.115-5.226c-.084-.233-.148-.455-.222-.688a58.514 58.514 0 01-2.051-9.595s-2.791-1.544-6.671-3.343c-10.119-4.728-27.596-11.255-21.517 3.343a57.18 57.18 0 012.284 6.559c.095.328.18.656.254.973 2.03 8.125.687 13.055-.825 15.773-.255.471-.549.92-.877 1.344a7.068 7.068 0 01-1.47 1.491l-2.516 15.985-.212 1.322-.391 2.349z" fill="#F6C2B2"></path>
    <path opacity=".1" d="M210.883 124.179c1.152 2.771-.561-2.264 0 0 4.61 3.279 15.468 12.62 21.569 12.62 4.123 0 5.36-.751 8.892-2.348a57.674 57.674 0 01-2.273-10.272s-36.594-20.184-28.188 0z" fill="#000"></path>
    <path d="M201.568 107.179a28.229 28.229 0 007.245 18.862 28.205 28.205 0 0017.993 9.182c.973.095 1.956.158 2.95.158a28.175 28.175 0 0015.66-4.753c4.636-3.099 5.04-8.127 7.173-13.28 2.134-5.153 4.914-3.472 3.826-8.942-1.087-5.471-2.785-17.226-6.727-21.17a28.173 28.173 0 00-30.719-6.114 28.195 28.195 0 00-17.401 26.057z" fill="#F6C2B2"></path>
    <path opacity=".1" d="M197.56 232.198l4.018 10.483s3.267.138 8.364.296c17.202.55 55.107 1.249 56.798-3.173.38-1.122.58-2.297.593-3.481.222-6.738-2.919-17.084-2.919-17.084s-1.808-20.703-1.808-21.602c0-.899 1.555-15.403 1.555-15.403l-3.109-11.636-8.659-6.083s-3.881 5.956-6.207 6.464c-2.326.507-5.434 3.374-5.434 3.374s-7.624 4.655-10.087 2.063c-2.464-2.592-21.59-13.974-21.59-13.974l-10.087 11.128-1.428 58.628z" fill="#000"></path>
    <path d="M197.56 233.805l4.018 10.473s3.267.148 8.364.307h.497c2.199.074 4.715.148 7.401.201 13.671.317 32.502.402 42.345-1.058 3.701-.529 6.122-1.29 6.524-2.327a9.319 9.319 0 00.465-1.925c.063-.487.106-1.058.127-1.555.222-6.739-2.918-17.085-2.918-17.085s-1.808-20.703-1.808-21.602c0-.899 1.554-15.402 1.554-15.402l-3.109-11.637-5.952-4.168-2.707-1.904a40.729 40.729 0 01-2.971 3.914 7.912 7.912 0 01-3.235 2.549c-2.337.519-5.435 3.375-5.435 3.375s-7.623 4.655-10.087 2.063c-1.871-1.978-13.502-9.098-18.873-12.346a188.952 188.952 0 00-2.717-1.629l-1.354 1.503-8.733 9.626-1.396 58.627z" fill="#fff"></path>
    <path opacity=".1" d="M334.102 126.114l11.26 7.892s.095-1.577.381-3.735c-5.561-2.348-8.945-7.542-9.917-9.203-1.036 2.814-1.724 5.046-1.724 5.046z" fill="#000"></path>
    <path d="M294.538 152.899l2.453-.656s4.018 4.231 6.344 4.792c2.326.561 7.232 3.745 7.232 3.745l5.699 4.528s4.229.656 2.971-2.328c-1.258-2.983 2.326-6.728 2.326-6.728s7.242-14.873 7.242-17.983c0-3.111 5.985-16.165 5.985-16.165s7.507 14.62 21.209 9.965c0 0-9.959 22.374-10.213 27.939-.254 5.564-6.852 21.083-6.852 21.083s-2.463 11.52-15.775 10.875c0 0-18.365 3.417-22.372 0-4.008-3.417-7.624-6.104-9.516-6.495-1.893-.392-3.616-2.582-3.616-2.582v-15.381l6.883-14.609z" fill="#4C4981"></path>
    <path opacity=".1" d="M317.555 167.509s-3.235 12.038-1.163 13.329l1.163-13.329zm-107.613 77.023c17.202.55 55.107 1.238 56.798-3.173.38-1.122.58-2.297.593-3.481l-56.197 2.962-1.194 3.692z" fill="#000"></path>
    <path d="M190.582 305.159l2.199 4.655s.307 1.385.698 3.586c.825 4.739 2.115 13.287 1.629 20.099-.645 9.965 0 12.751 0 12.751s21.263 9.823 56.815 14.22c14.439 1.786 27.983 1.515 27.983 1.515s-2.698-18.394 1.447-26.158c2.823-5.29 4.81-28.901 4.874-44.431 0-7.162-.36-12.589-1.258-13.689-2.845-3.491-14.993-38.422-14.993-38.422l-2.77.149-7.401.391-42.081 2.221-6.609.35-.698 2.115-19.835 60.648z" fill="#444053"></path>
    <path d="M169.638 289.629l-.391 4.147s20.838-6.792 19.781-15.138c-1.057-8.347 0-7.405 0-7.405l-16.747 1.417-2.643 16.979z" fill="#4C4981"></path>
    <path opacity=".1" d="M169.638 289.629l-.391 4.147s20.838-6.792 19.781-15.138c-1.057-8.347 0-7.405 0-7.405l-16.747 1.417-2.643 16.979zM303.334 176.3a9.338 9.338 0 00-1.607 2.549 15.416 15.416 0 00.117 8.008l3.341-8.061c.581-1.375 1.163-2.75 1.86-4.062.307-.56 2.231-2.898 2.009-3.385-.592-1.375-5.096 4.179-5.72 4.951zm-58.194-31.959s-.254 11.912 1.681 17.349c.613 1.693 1.564 4.813 2.601 8.315 1.131 3.882 2.368 8.23 3.32 11.637.951 3.406 1.586 5.691 1.586 5.691s4.366 35.587 5.498 52.544c0 .297 0 .603.063.889.063.952.169 1.947.328 2.973 2.516 16.841 17.033 42.812 21.907 44.885a14.521 14.521 0 014.103 2.825c0-7.162-.36-12.589-1.258-13.689-2.845-3.491-14.993-38.422-14.993-38.422l-2.77.148c.063-.487.105-1.058.127-1.555.222-6.739-2.919-17.085-2.919-17.085s-1.808-20.702-1.808-21.601c0-.9 1.555-15.403 1.555-15.403l-3.109-11.637-5.953-4.168c-.74-8.981-2.505-19.888-6.724-22.86a16.808 16.808 0 01-4.917-6.231c-.835.116.688-.624.688-.624l.994 6.019z" fill="#000"></path>
    <path d="M242.866 137.666a7.693 7.693 0 016.545.741c2.982 2.115 8.797 1.935 10.351 1.555 1.555-.381 17.71-2.465 19.032-1.947 1.321.518 3.88-1.809 5.561 1.301s2.453 4.782 4.134 5.554c1.682.772 4.663 3.237 4.23 3.756-.434.518 4.229 3.617 4.229 3.617l-9.431 30.679s6.079 38.802 9.05 42.166c2.971 3.364 29.351 46.959 19.909 54.724a187.87 187.87 0 01-23.662 15.868c-1.057.519-4.779-6.463-9.949-8.664-5.171-2.2-21.21-31.313-22.204-47.868-.994-16.556-5.561-53.423-5.561-53.423s-5.562-20.184-7.497-25.622c-1.935-5.437-1.681-17.349-1.681-17.349l-3.056-5.088z" fill="#4C4981"></path>
    <path opacity=".1" d="M190.582 305.159l2.199 4.654s.307 1.386.698 3.586a1.975 1.975 0 001.058-.476c3.235-2.591 22.203-22.12 23.144-39.458.666-12.79.349-23.813.138-28.721-.064-1.545-.127-2.476-.127-2.677 0 0-14.739-17.857-13.058-24.183 1.681-6.326 5.561-40.199 5.561-40.199l.571-4.443.984-7.511 2.347-18.174-2.432.571a7.026 7.026 0 01-1.47 1.492l-2.516 15.984-8.733 9.627-1.428 58.606 4.018 10.473s3.267.148 8.363.307h.497l-19.814 60.542z" fill="#000"></path>
    <path d="M182.441 208.417s3.616-1.428 3.87 0 .909 4.517.909 4.517-.645 7.511 2.115 10.483c2.759 2.973 3.172 15.519 3.172 15.519s4.356 12.42 2.294 16.302c-.751 1.407-1.914 8.463-3.077 16.926-.74 5.289-1.469 11.097-2.114 16.408-1.174 9.647-2.051 17.634-2.051 17.634s2.336 8.537 5.572 5.946c3.235-2.592 22.203-22.121 23.134-39.459.634-12.176.38-22.755.169-27.97a133.929 133.929 0 00-.169-3.459s-14.739-17.857-13.058-24.194c1.681-6.337 5.561-40.199 5.561-40.199l.677-5.236.729-5.628.17-1.238 2.336-17.984c-.412.095-14.918 3.375-16.832 5.29-1.914 1.914-13.745 4.654-13.745 4.654a10.337 10.337 0 00-4.697 2.764 10.336 10.336 0 00-2.641 4.768c-.116.36-.201.741-.285 1.132-1.555 7.511-1.058 8.41-2.115 9.711-1.057 1.302 10.076 33.313 10.076 33.313z" fill="#4C4981"></path>
    <path opacity=".1" d="M189.525 288.56c5.287-1.057 13.132-3.501 12.952-8.896-.159-5.046-6.227-6.866-10.826-7.511-.74 5.268-1.47 11.097-2.126 16.407z" fill="#000"></path>
    <path d="M173.126 285.874c.212.455 1.057.846 2.263 1.195a60.954 60.954 0 008.596 1.407s17.974-1.428 17.72-9.584c-.19-5.85-8.31-7.405-12.867-7.754a29.292 29.292 0 00-3.035-.127s-13.449 13.191-12.677 14.863z" fill="#F6C2B2"></path>
    <path opacity=".1" d="M173.127 285.874c.211.455 1.057.846 2.262 1.195 4.684-6.273 11.218-14.323 14.421-15.032l-.972-.899a29.292 29.292 0 00-3.035-.127s-13.448 13.191-12.676 14.863z" fill="#000"></path>
    <path d="M177.651 174.237l-5.286.782a92.098 92.098 0 01-6.344 9.701 10.579 10.579 0 00-2.326 6.21s-7.761 11.509-10.214 12.8c-2.453 1.291-6.206 10.092-6.206 10.092s-6.08 4.009-6.08 8.537a75.92 75.92 0 01-1.163 11.256c-.137.645.899 8.674 3.489 12.694 2.591 4.02 5.181 12.885 5.044 14.472-.138 1.587 7.242 9.838 9.304 12.419a52.555 52.555 0 014.525 7.638l6.852 12.938s14.485-21.348 19.782-22.512c0 0-5.942-5.691-8.913-6.728-2.971-1.036-5.826-9.52-5.953-11.509-.127-1.989-2.717-8.41-5.424-9.521-2.706-1.111-4.144-2.327-2.981-4.147 1.163-1.819 0-5.289 0-5.289s7.633-10.092 8.67-15.868c1.036-5.776 8.014-9.701 8.014-9.701l4.007-9.838-8.797-24.426z" fill="#4C4981"></path>
    <path opacity=".1" d="M158.419 222.529a16.768 16.768 0 00-10.435-3.956c2.453.423 5.032.962 6.83 2.676.706.742 1.34 1.55 1.892 2.412.614.878 5.604 7.225 6.344 6.22 1.237-1.47-3.627-6.495-4.631-7.352zm16.293-58.353c.521.682 1.121 1.3 1.787 1.841 2.115 1.682 4.916 3.1 5.181 5.755a6.182 6.182 0 00.317 2.549c.677 1.164 2.337 1.058 3.658.836a6.351 6.351 0 003.098-1.142c1.385-1.185 1.512-3.301 2.569-4.793a6.521 6.521 0 015.287-2.338c1.977-.063 3.944.381 5.921.466a16.264 16.264 0 003.796-.254c.413-.063.822-.148 1.226-.254a15.75 15.75 0 002.58-.878c.431-.171.851-.369 1.258-.592a16.709 16.709 0 003.648-2.539c1.935-1.777 3.542-4.232 3.383-6.866-.095-1.618-.824-3.11-1.057-4.707-.793-4.57 2.242-8.886 5.53-12.155 1.311-1.301 2.706-2.56 4.018-3.883a19.36 19.36 0 004.726-6.749 20.121 20.121 0 00.846-8.463 58.44 58.44 0 01-.244-8.695c.973-10.283 9.749-18.164 18.525-22.448l.391-.202a28.185 28.185 0 00-20.87-9.668 28.17 28.17 0 00-21.119 9.11 28.198 28.198 0 00-3.739 33.033 28.178 28.178 0 007.823 8.782c.095.328.18.656.254.974 2.03 8.124.687 13.054-.825 15.773-.412.095-14.919 3.374-16.832 5.289-1.914 1.915-13.745 4.655-13.745 4.655a10.337 10.337 0 00-7.391 7.563z" fill="#000"></path>
    <path d="M253.017 81.208c-.582-.666-1.46-1.005-2.052-1.65-1.829-1.99 0-5.237-.666-7.86-.719-2.91-4.292-4.179-7.274-3.872-2.982.307-5.773 1.682-8.755 2.02-4.631.519-9.114-1.491-13.628-2.666-4.515-1.174-9.971-1.237-13.079 2.222-3.109 3.46-2.897 9.352-6.767 11.859-1.787 1.153-4.039 1.28-5.974 2.115a12.284 12.284 0 00-5.054 4.835 25.336 25.336 0 00-3.827 16.196c.327 3.068 1.216 6.051 1.575 9.119.365 3.186.15 6.411-.634 9.521-.814 3.173-2.58 6.601-5.741 7.616a9.696 9.696 0 00-2.115.73c-1.829 1.143-1.586 3.83-1.121 5.924l1.882 8.686c-1.808 1.375-4.62.782-6.344 2.232a5.293 5.293 0 00-1.48 2.327 12.7 12.7 0 003.796 13.9c2.114 1.682 4.916 3.1 5.181 5.745a5.955 5.955 0 00.317 2.549c.666 1.164 2.337 1.058 3.658.836a6.343 6.343 0 003.087-1.143c1.396-1.185 1.512-3.3 2.57-4.792a6.547 6.547 0 015.286-2.338c1.988-.063 3.944.381 5.932.476 4.584.188 9.06-1.43 12.466-4.506 1.945-1.788 3.542-4.232 3.394-6.876-.096-1.608-.825-3.111-1.058-4.708-.782-4.559 2.242-8.886 5.53-12.155 3.288-3.269 7.147-6.284 8.754-10.631 2.009-5.385.064-11.394.603-17.106.973-10.293 9.738-18.164 18.524-22.459 1.956-1.005 5.287-3.554 3.014-6.146z" fill="#444053"></path>
  </symbol>
  <!-- items -->
  <symbol fill="none" xmlns="http://www.w3.org/2000/svg" viewBox="0 0 36 36" id="maintenance">
    <path fill-rule="evenodd" clip-rule="evenodd" d="M35.623 22.242a.604.604 0 00-.66.144L32.4 25.079V9.08h.003l2.445-2.64a.6.6 0 00-.033-.848l-.88-.82 1.222-1.32a.6.6 0 00-.034-.847L32.483.16a.6.6 0 00-.847.033L27.37 4.799H6.6a3.003 3.003 0 00-3-3H3a3.003 3.003 0 00-3 3v25.8a.6.6 0 00.6.6h9.083l-1.26 1.513a.6.6 0 00.077.845l2.767 2.304a.6.6 0 00.845-.078l3.071-3.69a1.78 1.78 0 00.394-.894H26.57l-3.606 3.787a.6.6 0 00.435 1.013h12a.6.6 0 00.6-.6V22.8a.6.6 0 00-.377-.557zM33.56 6.059L32.4 7.314V6.43l.72-.78.44.408zm-2.36-.107v.009l-5.074 5.484-1.762-1.63 6.112-6.606 1.763 1.63-1.032 1.113H31.2zm-6.227 6.06l-1.38.403.295-1.408 1.085 1.005zm7.134-10.565l1.761 1.63-.815.882-1.762-1.631.816-.88zM3 3h.6a1.8 1.8 0 011.8 1.8v22.816A2.969 2.969 0 003.6 27H3a2.968 2.968 0 00-1.8.616V4.799A1.8 1.8 0 013 3zm0 25.2h.6A1.8 1.8 0 015.4 30H1.2A1.8 1.8 0 013 28.2zm11.261 3.127l-.384.461-1.844-1.535.383-.461a.6.6 0 01.845-.078l.923.766a.6.6 0 01.078.845v.002zm-2.687 3.228L9.73 33.02l1.536-1.845 1.844 1.535-1.535 1.845zM15.324 30a1.783 1.783 0 00-.373-.44l-.922-.768a1.8 1.8 0 00-2.535.232L10.68 30H6.6V6h19.66l-3.185 3.44a.583.583 0 00-.125.227.314.314 0 01-.008.02.242.242 0 00-.011.035l-.717 3.425a.6.6 0 00.756.698l3.36-.98a.162.162 0 00.023-.01.19.19 0 01.02-.008c.016-.006.031-.014.047-.022a.594.594 0 00.18-.126l4.6-4.971v18.611L27.714 30h-12.39zM34.8 34.8h-10l10-10.5v10.5zm-6.554-1.57a.6.6 0 00.554.37H33a.6.6 0 00.6-.6v-4.2a.6.6 0 00-1.024-.424l-4.2 4.2a.6.6 0 00-.13.654zm4.154-2.982V32.4h-2.15l2.151-2.152zM22.2 22.8h4.2a.6.6 0 110 1.2H9.6a.6.6 0 110-1.2h4.2v-6.6c0-.159.063-.311.175-.425l3.6-3.6a.6.6 0 01.849 0l3.6 3.6a.607.607 0 01.176.425v6.6zm-2.048-7.2L18 13.447 15.848 15.6h4.304zM21 22.8v-6h-6v6h6zM17.4 9.6h1.2v1.2h-1.2V9.6zm1.2 15.6h-1.2v1.2h1.2v-1.2z" fill="#1C57C9"></path>
  </symbol>
  <symbol fill="none" xmlns="http://www.w3.org/2000/svg" viewBox="0 0 36 36" id="monitoring">
    <path fill-rule="evenodd" clip-rule="evenodd" d="M33.89 5.625h-1.687V2.109A2.111 2.111 0 0030.093 0H5.907c-1.163 0-2.11.946-2.11 2.11v3.515H2.11C.946 5.625 0 6.571 0 7.735v20.25c0 1.162.946 2.109 2.11 2.109h12.374v1.687h-1.337c-1.163 0-2.11.946-2.11 2.11v1.406c0 .388.315.703.704.703H24.26a.703.703 0 00.703-.703V33.89a2.112 2.112 0 00-2.11-2.109h-1.337v-1.687H33.89a2.112 2.112 0 002.109-2.11V7.734a2.111 2.111 0 00-2.11-2.109zm0 1.406c.388 0 .704.316.704.703v16.172h-2.39V7.031h1.687zM5.907 1.406h24.188c.387 0 .703.316.703.703v3.516H5.203V2.109c0-.387.316-.703.703-.703zM2.11 7.031h1.688v5.273a.703.703 0 001.406 0V7.031h25.594v16.875H27.21V21.59a.703.703 0 00-.703-.703h-.915a7.825 7.825 0 00-.66-1.592l.648-.647a.703.703 0 000-.994l-2.135-2.135a.703.703 0 00-.995 0l-.647.647a7.82 7.82 0 00-1.591-.66v-.914a.703.703 0 00-.704-.703H16.49a.703.703 0 00-.704.703v.915a7.822 7.822 0 00-1.591.66l-.647-.648a.703.703 0 00-.995 0l-2.135 2.135a.703.703 0 000 .994l.648.647a7.823 7.823 0 00-.66 1.592h-.915a.703.703 0 00-.703.703v2.317H5.203v-5.274a.703.703 0 00-1.406 0v5.274h-2.39V7.734c0-.387.315-.703.702-.703zm10.34 11.656l-.538-.537 1.14-1.14.538.537a.703.703 0 00.88.093 6.442 6.442 0 012.168-.9.703.703 0 00.557-.687v-.76h1.612v.76c0 .332.232.619.557.688a6.442 6.442 0 012.169.899c.278.18.645.142.88-.093l.537-.538 1.14 1.14-.537.538a.703.703 0 00-.093.88 6.44 6.44 0 01.899 2.169.703.703 0 00.687.556h.76v1.614H21.42A3.52 3.52 0 0018 19.582a3.52 3.52 0 00-3.421 4.324h-4.384v-1.614h.76a.703.703 0 00.687-.556 6.442 6.442 0 01.9-2.169.703.703 0 00-.094-.88zm3.44 4.413c0-1.164.947-2.11 2.11-2.11 1.163 0 2.11.946 2.11 2.11 0 .277-.056.552-.163.807h-3.894a2.099 2.099 0 01-.163-.807zm7.666 10.791v.704H12.444v-.704c0-.387.315-.703.703-.703h9.706c.388 0 .703.316.703.703zm-7.665-2.109v-1.687h4.218v1.687h-4.218zM2.109 28.687a.704.704 0 01-.703-.703v-2.672h33.188v2.672a.704.704 0 01-.703.703H2.109zm18-24.468h7.594a.703.703 0 100-1.407H20.11a.703.703 0 100 1.407zm-8.221-.206a.708.708 0 01-.497.206.708.708 0 01-.498-.206.708.708 0 01-.206-.497.708.708 0 01.703-.703.71.71 0 01.498.206.71.71 0 01.206.497.708.708 0 01-.206.497zm-3.591.206a.708.708 0 00.497-.206A.708.708 0 009 3.516a.708.708 0 00-.206-.497.708.708 0 00-.497-.207.708.708 0 00-.497.207.708.708 0 00-.206.497.707.707 0 00.703.703zm6.684-.206a.708.708 0 01-.497.206.708.708 0 01-.497-.206.708.708 0 01-.206-.497c0-.185.075-.367.206-.497a.708.708 0 01.497-.207.708.708 0 01.703.703.708.708 0 01-.205.498zm-7.106 6.393h1.673a.703.703 0 100-1.406H7.875a.703.703 0 100 1.406zm11.217 0h-6.45a.703.703 0 010-1.406h6.45a.703.703 0 110 1.406zM7.875 13.781h4.078a.703.703 0 100-1.406H7.875a.703.703 0 100 1.406zm20.25-3.375h-5.939a.703.703 0 010-1.406h5.939a.703.703 0 010 1.406zm0 1.969h-4.812a.703.703 0 100 1.406h4.812a.703.703 0 000-1.406zm-23.128 3.59a.708.708 0 01-.497.206.708.708 0 01-.497-.206.708.708 0 01-.206-.497c0-.185.075-.366.206-.497a.708.708 0 01.497-.206.707.707 0 01.703.703.708.708 0 01-.206.497z" fill="#1C57C9"></path>
  </symbol>
  <symbol fill="none" xmlns="http://www.w3.org/2000/svg" viewBox="0 0 36 36" id="repair">
    <path fill-rule="evenodd" clip-rule="evenodd" d="M35.865 21.78l.004.009.004.007c.084.213.127.44.127.667V35.22a.6.6 0 01-.6.6H.6a.6.6 0 01-.6-.6V22.463c0-.43.153-.845.433-1.171l2.951-3.443a1.808 1.808 0 011.368-.63H7.2v-7.2a6.608 6.608 0 016.6-6.6h12.38l.73-2.39a1.207 1.207 0 011.331-.835l1.343.21c.59.094 1.021.604 1.016 1.2l-.032 2.524A6.594 6.594 0 0134.2 10.02v9.677l1.368 1.596c.123.146.223.311.297.488zm-11.81-3.855l.865 3.494h3.032c.415-1.048.3-2.217.17-3.45l-.009-.088c-.147-1.346-.314-2.874.374-4.31l-.413-.043h-.002l-2.775-.431c.2 1.539-.405 2.913-.99 4.242v.001l-.252.585zM11.4 24.419v-2.4H6.6v2.4a1.802 1.802 0 001.8 1.8h1.2a1.802 1.802 0 001.8-1.8zm17.85-7.2h1.35v-7.2a2.967 2.967 0 00-.825-2.063l-.47 1.536-.46 2.964c.299.098.548.306.698.582.176.325.186.715.027 1.049a5.826 5.826 0 00-.32 3.132zm-1.587-4.97l.368-2.371-.256-.04-.935-.146-.367 2.373 1.19.184zm-2.38-.345l.46-2.963.024-1.922H13.8a3.003 3.003 0 00-3 3v7.2h5.661l-1.426-5.766a1.202 1.202 0 01.88-1.453l4.66-1.151c.3-.079.62-.033.889.126.279.163.48.43.56.744l1.554 6.277a5.373 5.373 0 00.518-2.758 1.155 1.155 0 01.341-.99c.227-.22.53-.343.846-.344zm-7.855 9.227l-.67-2.712h-1.653l2.323 2.712zm3.114.084a.593.593 0 01.01.204h3.131l-2.821-11.405-4.662 1.152.72 2.91 1.167-.288a.6.6 0 11.288 1.165l-1.167.29.289 1.164 1.166-.289a.6.6 0 01.288 1.165l-1.167.289.288 1.165 1.167-.29a.6.6 0 11.289 1.166l-1.168.289.288 1.165 1.168-.29a.599.599 0 01.727.438zm10.706-2.796h-1.874a8.002 8.002 0 01-.156 3h4.878l-2.392-2.789a.613.613 0 00-.456-.21zM33 18.297V10.02a5.391 5.391 0 00-2.484-4.537.356.356 0 00-.006.04.272.272 0 01-.008.053l-.343 1.122a4.154 4.154 0 011.64 3.322v7.302c.316.096.598.278.816.526l.385.45zM29.4 1.59l-1.343-.209-1.062 3.478-.02 1.556.001.006-.001.006-.026 2.068.835.13.508.08 1.062-3.478v-.002L29.4 1.59zM13.8 4.62a5.406 5.406 0 00-5.4 5.4v10.8h1.2v-10.8a4.205 4.205 0 014.2-4.2h11.982l.013-.976c.004-.076.016-.15.035-.224H13.8zM1.344 22.074a.597.597 0 00-.144.39V34.62h15.6V22.463a.615.615 0 00-.043-.224.682.682 0 00-.108-.174l-2.945-3.435a.613.613 0 00-.456-.21H10.8v2.4h.6a1.2 1.2 0 011.2 1.2v2.4a3.003 3.003 0 01-3 3H8.4a3.003 3.003 0 01-3-3v-2.4a1.2 1.2 0 011.2-1.2h.6v-2.4H4.752a.614.614 0 00-.458.211l-2.95 3.443zM18 22.619v12h16.8v-12H18zm.37-10.374a.6.6 0 111.186.18.6.6 0 01-1.187-.18zM21 23.82h-1.2a.6.6 0 100 1.2H21a.6.6 0 000-1.2zm2.4 0H33a.6.6 0 110 1.2h-9.6a.6.6 0 110-1.2z" fill="#1C57C9"></path>
  </symbol>
  <symbol fill="none" xmlns="http://www.w3.org/2000/svg" viewBox="0 0 36 36" id="replace">
    <path fill-rule="evenodd" clip-rule="evenodd" d="M22.867.657a.703.703 0 00-.995 0l-.994.994a.703.703 0 00.995.995l.994-.995a.703.703 0 000-.994zm4.971 0a.704.704 0 01.995.994.703.703 0 11-.994-.994zm5.967.994a.704.704 0 00-.995.995.703.703 0 10.995-.995zm1.989 3.978a.704.704 0 10-.994.996.704.704 0 00.994-.996zM4.217 31.332a.704.704 0 00-.995.995.704.704 0 00.995-.995zm4.723-5.81a.703.703 0 111.006.982l-3.734 3.827a.7.7 0 01-.995.013.703.703 0 01-.012-.995l3.735-3.827zm23.87-8.955l-2.48-2.48-.01-.01-2.973-2.973-.01-.01-2.973-2.973-.01-.01-2.973-2.974-.01-.01-2.482-2.48a.703.703 0 00-.994 0L9.941 10.6l-.996.994a3.52 3.52 0 000 4.972l1.99 1.99a.698.698 0 010 .994l-.981.98-8.518 7.628v.001a4.224 4.224 0 00-.202 6.155 4.19 4.19 0 002.983 1.234 4.19 4.19 0 003.176-1.44v-.001l.002-.001 7.534-8.607.978-.978a.704.704 0 01.994 0l1.989 1.988a3.491 3.491 0 002.485 1.03c.94 0 1.822-.365 2.486-1.03l.995-.994 7.954-7.954a.703.703 0 000-.995zM6.337 33.181a2.793 2.793 0 01-2.12.962 2.793 2.793 0 01-1.989-.822 2.815 2.815 0 01.142-4.11l.002-.002.002-.002 8.037-7.198 3.042 3.042-7.116 8.13zm16.53-7.665a2.094 2.094 0 01-1.492.619 2.09 2.09 0 01-1.49-.619l-1.99-1.988a2.112 2.112 0 00-2.983 0l-.497.497-2.983-2.983.497-.497c.399-.399.618-.929.618-1.492s-.22-1.093-.618-1.491l-1.989-1.99a2.112 2.112 0 010-2.982l.498-.498L23.364 25.02l-.497.497zm1.492-1.491L11.432 11.098l6.96-6.96 1.492 1.492-3.48 3.48a.703.703 0 10.994.994l3.48-3.48 1.99 1.99-3.481 3.479a.703.703 0 10.994.994l3.48-3.48 1.989 1.989-3.48 3.48a.703.703 0 00.994.994l3.48-3.48 1.99 1.99-3.48 3.479a.703.703 0 00.993.994l3.48-3.48 1.492 1.492-6.96 6.96zM25.85 2.646a.703.703 0 01.995.995l-1.989 1.988a.7.7 0 01-.994 0 .703.703 0 010-.994l1.988-1.989zm4.972.994a.703.703 0 01.994.995L27.84 8.612a.701.701 0 01-.995 0 .703.703 0 010-.994l3.978-3.978zm2.983 3.978a.703.703 0 00-.994 0l-2.983 2.983a.703.703 0 10.994.994l2.983-2.982a.703.703 0 000-.995zm0 4.972a.703.703 0 01.995.994l-.995.995a.701.701 0 01-.994 0 .703.703 0 010-.995l.994-.994z" fill="#1C57C9"></path>
  </symbol>
  <!-- items -->
  <!-- services -->
  <symbol fill="none" xmlns="http://www.w3.org/2000/svg" viewBox="0 0 35 32" id="alarm-y">
    <path fill-rule="evenodd" clip-rule="evenodd" d="M16.586.667c0-.368.297-.667.664-.667.367 0 .664.299.664.667V6a.665.665 0 01-.664.667.665.665 0 01-.664-.667V.667zm-6.38 7.986L6.45 4.88a.662.662 0 00-.94 0 .669.669 0 000 .943l3.757 3.771c.26.26.68.26.94 0a.669.669 0 000-.942zM28.05 4.88c.26-.26.68-.26.94 0a.67.67 0 010 .943l-3.757 3.771c-.26.26-.68.26-.94 0a.669.669 0 010-.942L28.05 4.88zm-.968 21.786h.793c1.098 0 1.992.897 1.992 2v2.666a.665.665 0 01-.664.667H5.297a.665.665 0 01-.664-.667v-2.666c0-1.103.894-2 1.992-2h.793L9.58 14.5a4.651 4.651 0 014.574-3.834h6.192a4.652 4.652 0 014.574 3.832l2.162 12.168zM14.154 12a3.322 3.322 0 00-3.267 2.737l-2.12 11.93h16.966l-2.12-11.932A3.322 3.322 0 0020.346 12h-6.192zM5.961 30.667h22.578v-2a.666.666 0 00-.664-.667H6.625c-.366 0-.664.3-.664.667v2zm15.273-14c0-.368.298-.667.664-.667a.666.666 0 010 1.333.666.666 0 01-.664-.666zm2.805 7.88l-.974-5.383a.664.664 0 10-1.307.238l.975 5.384a.664.664 0 101.306-.239zM27.875 16h5.71c.368 0 .665.299.665.667a.665.665 0 01-.664.666h-5.711a.665.665 0 01-.664-.666c0-.369.297-.667.664-.667zm-21.25 0H.915a.665.665 0 00-.665.667c0 .368.297.666.664.666h5.711a.665.665 0 00.664-.666.665.665 0 00-.664-.667z" fill="#D69026"></path>
  </symbol>
  <symbol fill="none" xmlns="http://www.w3.org/2000/svg" viewBox="0 0 35 32" id="diagnostics">
    <path fill-rule="evenodd" clip-rule="evenodd" d="M30.85 14.61a3.944 3.944 0 013.359 3.321c.313 2.143-1.191 4.132-3.36 4.441-2.168.31-4.18-1.177-4.492-3.32-.313-2.144 1.191-4.133 3.36-4.442v-1.017c0-2.193-1.653-3.977-3.684-3.977-1.973 0-3.627 1.73-3.683 3.856v11.013c0 4.141-3.178 7.515-7.084 7.515-3.905 0-7.083-3.37-7.083-7.515v-.957c-.821 0-1.7-.588-1.7-2.24v-1.41C2.848 18.963.25 15.874.25 12.37v-1.165h1.133V3.922A2.81 2.81 0 013.74 1.168a1.714 1.714 0 013.214-.097 1.682 1.682 0 01-.964 2.19 1.714 1.714 0 01-2.214-.955 1.684 1.684 0 00-1.258 1.616v7.282h1.7v1.184a4.461 4.461 0 003.254 4.18 5.21 5.21 0 003.117 0 4.464 4.464 0 003.262-4.18v-1.184h1.133l-.025-7.287a1.684 1.684 0 00-1.235-1.603 1.683 1.683 0 01-1.044.965 1.695 1.695 0 01-2.133-1.07A1.668 1.668 0 0111.63.1a1.695 1.695 0 012.132 1.07 2.813 2.813 0 012.332 2.742l.023 7.291h1.134v1.168c0 3.5-2.597 6.587-6.233 7.507v1.409c0 1.651-.879 2.24-1.7 2.24v.957c0 3.525 2.668 6.395 5.95 6.395 3.28 0 5.95-2.866 5.95-6.395v-11.04l.032-.006h-.033c.078-2.727 2.237-4.945 4.817-4.945 2.656 0 4.816 2.288 4.816 5.098v1.018zM11.582 1.681c0 .31.254.56.567.56.313 0 .566-.25.566-.56 0-.31-.253-.56-.566-.56a.563.563 0 00-.567.56zm-5.666 0c0-.31-.254-.56-.567-.56a.563.563 0 00-.567.56c0 .31.254.56.567.56.313 0 .567-.25.567-.56zM1.383 12.325v.044c0 3.117 2.43 5.859 5.78 6.521a8.174 8.174 0 003.173.001c3.35-.663 5.78-3.405 5.78-6.522v-.044h-1.133v.063c-.043 2.436-1.683 4.561-4.048 5.246a6.375 6.375 0 01-3.807 0c-2.364-.686-4.002-2.81-4.045-5.246v-.063h-1.7zm6.234 8.963c0 .336.056 1.12.566 1.12h1.133c.51 0 .567-.784.567-1.12v-1.19c-.024.004-.049.006-.073.008a9.19 9.19 0 01-1.046.061h-.029c-.272 0-.543-.017-.81-.04l-.043-.004a5.475 5.475 0 01-.128-.012l-.055-.005a1.72 1.72 0 01-.082-.007v1.189zm19.833-2.801c0 1.547 1.268 2.8 2.833 2.8 1.564-.001 2.831-1.254 2.833-2.8 0-1.547-1.268-2.801-2.833-2.801-1.565 0-2.833 1.254-2.833 2.8zm1.133 0c0-.928.761-1.68 1.7-1.68s1.7.752 1.7 1.68a1.69 1.69 0 01-1.7 1.68 1.69 1.69 0 01-1.7-1.68zm1.133 0c0 .309.254.56.567.56a.564.564 0 00.567-.56c0-.31-.254-.56-.567-.56a.563.563 0 00-.567.56z" fill="#2682D6"></path>
  </symbol>
  <symbol fill="none" xmlns="http://www.w3.org/2000/svg" viewBox="0 0 37 38" id="energy">
    <path fill-rule="evenodd" clip-rule="evenodd" d="M18.5.553c-5.353 0-10.409 2.552-13.781 6.668V6.03c0-.598-.472-1.081-1.055-1.081s-1.055.483-1.055 1.08v4.592c0 1.032 1.3 1.18 1.055 1.081.02 0 .04 0 .06-.002h.005l4.219-.268a1.072 1.072 0 00.987-1.145 1.073 1.073 0 00-1.117-1.013l-2.137.137C8.64 5.284 13.43 2.715 18.5 2.715c8.724 0 15.89 7.345 15.89 16.285 0 .598.472 1.081 1.055 1.081s1.055-.483 1.055-1.08C36.5 8.867 28.387.552 18.5.552zm7.355 18.2a1.07 1.07 0 00-.693-.777l-5.175-1.768 3.675-7.533a1.1 1.1 0 00-.326-1.36 1.036 1.036 0 00-1.363.113L11.426 18.236a1.1 1.1 0 00-.28 1.012c.084.366.345.66.692.777l5.175 1.768-3.675 7.532a1.1 1.1 0 00.327 1.361c.42.308.995.263 1.362-.113l10.547-10.808a1.1 1.1 0 00.281-1.013zm3.197 7.815l4.219-.268c.564-.033 1.12.485 1.12 1.079v4.591c0 .598-.472 1.081-1.055 1.081a1.067 1.067 0 01-1.055-1.08v-1.192c-3.372 4.116-8.428 6.668-13.781 6.668-9.887 0-18-8.315-18-18.447 0-.598.472-1.081 1.055-1.081s1.054.483 1.054 1.08c0 8.941 7.167 16.286 15.891 16.286 5.07 0 9.859-2.569 12.82-6.696l-2.138.137c-.562.037-1.081-.417-1.117-1.013a1.072 1.072 0 01.987-1.145z" fill="#D62642"></path>
  </symbol>
  <symbol fill="none" xmlns="http://www.w3.org/2000/svg" viewBox="0 0 37 38" id="lifecycle">
    <path d="M2.854 17.05c.938-5.455 4.696-9.92 9.669-11.76l-.234.414a1.224 1.224 0 00.431 1.65c.186.11.389.162.589.162.407 0 .803-.216 1.021-.603l1.625-2.883c.156-.277.199-.607.118-.916a1.204 1.204 0 00-.55-.734L12.71.715a1.163 1.163 0 00-1.61.442 1.224 1.224 0 00.432 1.65l.293.173C6.02 5.087 1.625 10.28.533 16.63a18.14 18.14 0 00.779 9.148c.174.49.625.794 1.107.794.134 0 .27-.024.403-.073.612-.23.927-.922.704-1.549a15.672 15.672 0 01-.672-7.9zm27.842 12.363a1.159 1.159 0 00-1.66.147c-3.429 4.18-8.813 6.189-14.053 5.24a14.814 14.814 0 01-6.893-3.25h.38c.65 0 1.178-.542 1.178-1.209s-.527-1.207-1.178-1.207H5.332a1.15 1.15 0 00-.867.276 1.21 1.21 0 00-.415.804v.004c-.004.035-.005.07-.006.105v.018l-.002 3.328c0 .667.527 1.208 1.178 1.209.651 0 1.179-.54 1.179-1.208v-.42a17.157 17.157 0 008.174 3.93c.995.18 1.993.267 2.985.267 5.063 0 9.964-2.288 13.282-6.332a1.228 1.228 0 00-.144-1.702zm5.877-6.154a1.163 1.163 0 00-1.61-.442l-.387.229c.016-.086.035-.17.05-.256.802-4.666-.216-9.374-2.868-13.255-2.652-3.88-6.62-6.471-11.173-7.293a1.181 1.181 0 00-1.365.98c-.113.656.315 1.283.956 1.399 3.933.71 7.36 2.947 9.651 6.3 2.287 3.346 3.167 7.402 2.482 11.425l-.173-.306a1.163 1.163 0 00-1.61-.443 1.224 1.224 0 00-.431 1.65l1.623 2.884a1.183 1.183 0 001.021.604c.205 0 .409-.055.59-.162l2.813-1.665a1.224 1.224 0 00.431-1.65z" fill="#1ECE7A"></path>
  </symbol>
  <symbol fill="none" xmlns="http://www.w3.org/2000/svg" viewBox="0 0 37 38" id="manual">
    <path d="M15.336 27.719c0 1.788 1.42 3.242 3.164 3.242 1.745 0 3.164-1.454 3.164-3.242s-1.42-3.242-3.164-3.242c-1.745 0-3.164 1.454-3.164 3.242zm3.164-1.08c.582 0 1.055.484 1.055 1.08 0 .596-.473 1.08-1.055 1.08s-1.055-.484-1.055-1.08c0-.596.473-1.08 1.055-1.08z" fill="#D69026"></path>
    <path d="M1.555 30.962h7.811l1.968 3.493c.14.248.37.43.64.504.27.074.559.035.8-.108l1.067-.631c.593-.351 1.495.1 1.495.848v1.298c0 .597.472 1.08 1.055 1.08h4.218c.583 0 1.055-.483 1.055-1.08v-1.261c0-.778.883-1.247 1.556-.85l1.005.596c.504.298 1.15.12 1.44-.396l1.969-3.493h7.811c.583 0 1.055-.484 1.055-1.081V1.634c0-.597-.472-1.08-1.055-1.08H22.72c-1.724 0-3.256.85-4.219 2.165-.963-1.314-2.495-2.166-4.219-2.166H1.555C.972.553.5 1.037.5 1.634v28.247c0 .597.472 1.08 1.055 1.08zm18-25.004c0-1.788 1.42-3.243 3.164-3.243H34.39V28.8h-7.453c-.081 0-.16.01-.236.028l-.418-.248c-.638-.377-.614-1.359.03-1.74l1.075-.636c.504-.299.678-.96.386-1.477l-2.11-3.744a1.041 1.041 0 00-1.44-.396l-.998.591c-.674.399-1.563-.062-1.563-.838v-1.268c0-.597-.472-1.08-1.055-1.08h-1.054V5.957zm0 14.195v.187c0 2.455 2.659 3.934 4.726 2.71l.085-.05 1.055 1.872-.161.096c-2.04 1.206-2.086 4.268-.03 5.484l.191.114-1.055 1.872-.091-.054c-2.06-1.218-4.72.257-4.72 2.721v.18h-2.11v-.217c0-2.384-2.636-3.917-4.66-2.72l-.152.09-1.054-1.872.251-.149c2.06-1.219 1.878-4.285-.15-5.485l-.101-.06L12.634 23l.126.075c2.052 1.214 4.685-.325 4.685-2.735v-.187h2.11zM2.609 2.715h11.672c1.745 0 3.164 1.455 3.164 3.243V17.99h-1.054c-.583 0-1.055.484-1.055 1.081v1.268c0 .746-.867 1.25-1.521.863l-1.04-.616a1.04 1.04 0 00-1.44.396l-2.11 3.744a1.096 1.096 0 00.386 1.477l1.015.6c.647.383.772 1.373.15 1.741l-.478.283a1.032 1.032 0 00-.236-.028H2.61V2.715z" fill="#D69026"></path>
    <path d="M5.773 9.272h8.508c.583 0 1.055-.483 1.055-1.08 0-.597-.472-1.081-1.055-1.081H5.773c-.582 0-1.054.484-1.054 1.08 0 .598.472 1.081 1.054 1.081zm9.563 3.243c0-.597-.472-1.081-1.055-1.081H5.773c-.582 0-1.054.484-1.054 1.08 0 .598.472 1.082 1.054 1.082h8.508c.583 0 1.055-.484 1.055-1.081zm7.383 1.081h8.508c.582 0 1.054-.484 1.054-1.081s-.472-1.081-1.054-1.081h-8.508c-.583 0-1.055.484-1.055 1.08 0 .598.472 1.082 1.055 1.082zm0-4.324h8.508c.582 0 1.054-.483 1.054-1.08 0-.597-.472-1.081-1.054-1.081h-8.508c-.583 0-1.055.484-1.055 1.08 0 .598.472 1.081 1.055 1.081z" fill="#D69026"></path>
  </symbol>
  <symbol fill="none" xmlns="http://www.w3.org/2000/svg" viewBox="0 0 36 38" id="optimize">
    <path fill-rule="evenodd" clip-rule="evenodd" d="M35.798.576c-.88-.053-6.123-.23-12.214 2.646a.596.596 0 00-.189.14c-4.151 2-8.642 5.412-12.301 11.216l-4.698-.32a.588.588 0 00-.599.388l-3.638 9.53a.624.624 0 00.195.714.588.588 0 00.723.002l3.02-2.32 1.58.323 2.384 2.443-.653 1.202a3.697 3.697 0 00-2.612-.266A4.062 4.062 0 004.1 28.579L.554 36.577a.625.625 0 00.121.69.59.59 0 00.673.124l7.804-3.636a4.11 4.11 0 002.249-2.762 3.96 3.96 0 00-.299-2.756l1.114-.69 2.483 2.544.315 1.618-2.264 3.095a.627.627 0 00.002.741.595.595 0 00.696.202l9.3-3.73a.616.616 0 00.38-.613l-.314-4.816c5.662-3.75 8.991-8.35 10.943-12.604a.596.596 0 01-.407.162.593.593 0 01-.424-.18l-.298-.306c-2.17 4.612-6.358 10.189-14.439 14.166-.9.443-1.832.858-2.79 1.243l-2.046-2.096 4.865-3.148a.616.616 0 00.28-.521v-3.69a.608.608 0 00-.6-.614h-4.042a.589.589 0 00-.335.105.61.61 0 00-.192.214l-.078.145-2.584 4.757-1.993-2.044a42.693 42.693 0 011.447-3.354c3.746-7.717 8.906-11.953 13.62-14.27l7.147-2.357c2.05-.374 3.629-.416 4.405-.405.013.862-.028 2.687-.468 5.032.442-2.35.483-4.173.469-5.033-.759-.013-2.29.02-4.274.362L35.798.576zM31.02 2.152a27.099 27.099 0 00-6.14 1.827l.031.033a27.403 27.403 0 015.977-1.816l.132-.044zM8.258 28.66l.565-1.042a2.48 2.48 0 00-1.065-.238c-.22 0-.444.029-.667.086a2.859 2.859 0 00-1.898 1.622l-2.885 6.506 6.347-2.957a2.896 2.896 0 001.583-1.945 2.725 2.725 0 00-.15-1.783l-1.01.586a.588.588 0 01-.72-.1.625.625 0 01-.1-.735zm1.207-11.222c.293-.572.598-1.131.912-1.676l-3.623-.247-2.71 7.098 1.548-1.19a.593.593 0 01.477-.11l1.527.312a42.813 42.813 0 011.869-4.187zm1.774 8.26l-.834 1.535 6.893-4.275V20.23H14.21l-2.859 5.318a.613.613 0 01-.112.149zm4.699 4.476l.305 1.565a.627.627 0 01-.108.489l-1.16 1.586 6.926-2.778-.242-3.712a37.9 37.9 0 01-1.62.927 40.801 40.801 0 01-4.101 1.923zm11.058-19.88a5.091 5.091 0 00-7.318 0c-2.017 2.067-2.017 5.43 0 7.499a5.093 5.093 0 007.318 0c2.018-2.068 2.018-5.432 0-7.5zm-.848 6.63a3.911 3.911 0 01-5.621 0c-1.55-1.59-1.55-4.173 0-5.761a3.914 3.914 0 015.62 0c1.55 1.588 1.55 4.172 0 5.76zm-4.004-1.659a1.66 1.66 0 002.386 0 .589.589 0 01.848 0c.235.24.235.63 0 .87a2.84 2.84 0 01-4.083 0 3.015 3.015 0 010-4.184 2.84 2.84 0 014.083 0 .625.625 0 010 .869.589.589 0 01-.848 0 1.66 1.66 0 00-2.386 0 1.762 1.762 0 000 2.445z" fill="#2682D6"></path>
  </symbol>
  <symbol fill="none" xmlns="http://www.w3.org/2000/svg" viewBox="0 0 37 38" id="search">
    <path fill-rule="evenodd" clip-rule="evenodd" d="M26.29 22.908l9.386 9.618c.531.545.824 1.268.824 2.038a2.9 2.9 0 01-.824 2.038 2.76 2.76 0 01-3.977 0l-6.79-6.958-.001-.001-2.594-2.659a13.697 13.697 0 01-7.752 2.392C6.809 29.376.5 22.911.5 14.964.5 7.018 6.808.553 14.563.553c7.754 0 14.062 6.465 14.062 14.411 0 2.85-.805 5.584-2.334 7.944zm-4.307 2.557a12.882 12.882 0 002.826-2.896 13.076 13.076 0 002.41-7.604c0-7.152-5.678-12.971-12.657-12.971-6.978 0-12.656 5.819-12.656 12.97 0 7.152 5.678 12.971 12.656 12.971 2.685 0 5.25-.854 7.42-2.47zm3.463-1.384a14.29 14.29 0 01-1.988 2.038l1.995 2.044a17.274 17.274 0 001.988-2.038l-1.995-2.044zm8.241 11.925c.376 0 .729-.15.995-.423a1.45 1.45 0 00.412-1.019 1.45 1.45 0 00-.412-1.018l-6.244-6.399a18.705 18.705 0 01-1.988 2.038l6.243 6.398c.266.273.62.423.995.423zM21.595 14.965c0-.398.315-.72.703-.72.388 0 .703.322.703.72 0 .397-.315.72-.703.72a.712.712 0 01-.703-.72zm-7.032-11.53c-6.203 0-11.25 5.172-11.25 11.53 0 6.357 5.047 11.529 11.25 11.529 6.204 0 11.25-5.172 11.25-11.53 0-6.357-5.046-11.529-11.25-11.529zm0 21.617c-5.427 0-9.843-4.525-9.843-10.088 0-5.562 4.416-10.088 9.843-10.088 5.428 0 9.844 4.526 9.844 10.088 0 5.563-4.416 10.088-9.843 10.088zm4.831-17.174a8.62 8.62 0 013.05 3.993.726.726 0 01-.405.931.687.687 0 01-.252.048.704.704 0 01-.657-.462c-1.038-2.77-3.677-4.63-6.567-4.63a.712.712 0 01-.703-.72c0-.398.315-.72.704-.72 1.738 0 3.408.54 4.83 1.56z" fill="#1ECE7A"></path>
  </symbol>
  <symbol fill="none" xmlns="http://www.w3.org/2000/svg" viewBox="0 0 27 38" id="tap">
    <path fill-rule="evenodd" clip-rule="evenodd" d="M12.75 1.322a.76.76 0 01.75-.769.76.76 0 01.75.769v3.074a.76.76 0 01-.75.768.76.76 0 01-.75-.768V1.322zM22.5 12.85h3a.76.76 0 01.75.768.76.76 0 01-.75.769h-3a.76.76 0 01-.75-.769.76.76 0 01.75-.768zm-18 0h-3a.76.76 0 00-.75.768.76.76 0 00.75.769h3a.76.76 0 00.75-.769.76.76 0 00-.75-.768zm16.955-8.47c.292-.3.768-.3 1.06 0a.78.78 0 010 1.086l-2.12 2.174a.738.738 0 01-1.061 0 .783.783 0 010-1.087l2.12-2.174zM7.667 6.553L5.546 4.38a.738.738 0 00-1.061 0 .783.783 0 000 1.087l2.12 2.174a.744.744 0 001.061 0 .783.783 0 000-1.087zM17 22.09a3.347 3.347 0 014.603.808 2.35 2.35 0 01-.141 2.942l-6.07 6.789a5.33 5.33 0 01-.216.226.768.768 0 01.574.748v3.075a.76.76 0 01-.75.769.76.76 0 01-.75-.769v-2.306h-9v2.306a.76.76 0 01-.75.769.76.76 0 01-.75-.769v-3.075a.76.76 0 01.75-.769h.262a6.973 6.973 0 01-2.512-5.38v-6.148C2.25 20.034 3.26 19 4.5 19c.293 0 .572.058.83.161.259-.978 1.135-1.699 2.17-1.699.293 0 .572.059.83.162.259-.978 1.135-1.699 2.17-1.699.262 0 .516.046.75.131v-2.437c0-1.27 1.01-2.305 2.25-2.305s2.25 1.034 2.25 2.306v9.323L17 22.09zm-2.716 9.498a3.715 3.715 0 01-2.71 1.246h-2.64C6.07 32.798 3.75 30.4 3.75 27.454v-6.148a.76.76 0 01.75-.769.76.76 0 01.75.769v.768a.76.76 0 00.75.769.76.76 0 00.75-.769v-2.306A.76.76 0 017.5 19a.76.76 0 01.75.768v2.306a.76.76 0 00.75.769.76.76 0 00.75-.769v-3.843a.76.76 0 01.75-.768.76.76 0 01.75.768v3.843a.76.76 0 00.75.769.76.76 0 00.75-.769V13.62a.76.76 0 01.75-.768.76.76 0 01.75.768v10.76a.77.77 0 00.398.676c.242.134.54.119.769-.038l2.415-1.651a1.87 1.87 0 012.571.452.783.783 0 01-.048.98l-6.07 6.789zM8.25 13.619c0-2.967 2.355-5.38 5.25-5.38s5.25 2.413 5.25 5.38a.76.76 0 01-.75.769.76.76 0 01-.75-.769c0-2.118-1.683-3.843-3.75-3.843s-3.75 1.725-3.75 3.843a.76.76 0 01-.75.769.76.76 0 01-.75-.769z" fill="#D62642"></path>
  </symbol>
  <symbol fill="none" xmlns="http://www.w3.org/2000/svg" viewBox="0 0 37 36" id="help">
    <path fill-rule="evenodd" clip-rule="evenodd" d="M27.735 3.99L18.733.05a.6.6 0 00-.48 0L9.251 3.99a.6.6 0 00-.36.55v9.42a6.608 6.608 0 002.737 5.345l6.221 4.486c.384.278.904.278 1.288 0l6.222-4.486a6.608 6.608 0 002.736-5.345V4.54a.6.6 0 00-.36-.55zm-.84 9.97a5.405 5.405 0 01-2.238 4.372l-6.164 4.444-6.163-4.444a5.405 5.405 0 01-2.239-4.372V4.932l8.402-3.677 8.402 3.677v9.028zM18.253 2.67l-6.6 2.89a.6.6 0 00-.361.55v7.851a4.2 4.2 0 001.74 3.398l5.11 3.686a.6.6 0 00.703 0l5.11-3.686a4.2 4.2 0 001.74-3.398V6.11a.6.6 0 00-.36-.55l-6.601-2.89a.6.6 0 00-.48 0zm6.242 3.832v7.459a3 3 0 01-1.242 2.425l-4.76 3.432-4.758-3.432a3 3 0 01-1.243-2.425v-7.46l6.002-2.625 6 2.626zM4.164 16.888l1.298 3.032a2.761 2.761 0 013.28.17 11.875 11.875 0 003.435 2.205 4.32 4.32 0 012 1.459 6.286 6.286 0 011.316 3.93V28.8a1.2 1.2 0 011.2 1.2v4.8a1.2 1.2 0 01-1.2 1.2H8.89a1.2 1.2 0 01-1.2-1.2V30c0-.303.117-.595.325-.816l-3.698-3.698a6.373 6.373 0 01-1.303-1.88L.663 18.432a1.912 1.912 0 113.5-1.545zM8.89 34.8h6.602V30H8.89v4.8zm5.402-7.116a5.09 5.09 0 00-1.053-3.181 3.152 3.152 0 00-1.443-1.07 12.797 12.797 0 01-3.829-2.423 1.56 1.56 0 00-1.943-.033c.216.324.464.625.74.9l2.74 2.742a.6.6 0 11-.848.848l-2.741-2.741a7.08 7.08 0 01-1.514-2.235L3.06 17.36a.712.712 0 00-1.255-.106.713.713 0 00-.05.682l2.352 5.172a5.19 5.19 0 001.06 1.528L9.33 28.8h4.963v-1.116zm-.6 4.116h-.6a.6.6 0 100 1.2h.6a.6.6 0 000-1.2zm22.631-13.367l-2.352 5.172a6.373 6.373 0 01-1.302 1.88l-3.699 3.7c.208.22.325.512.325.815v4.8a1.2 1.2 0 01-1.2 1.2h-6.601a1.2 1.2 0 01-1.2-1.2V30a1.2 1.2 0 011.2-1.2v-1.117a6.286 6.286 0 011.315-3.931 4.321 4.321 0 012-1.459 11.87 11.87 0 003.436-2.204 2.768 2.768 0 013.283-.18l1.296-3.021a1.913 1.913 0 113.5 1.545zM21.494 34.8h6.602V30h-6.601v4.8zm1.2-6h4.963l4.162-4.162a5.19 5.19 0 001.059-1.528l2.352-5.173a.713.713 0 10-1.305-.577l-1.342 3.131a7.078 7.078 0 01-1.514 2.235l-2.741 2.742a.6.6 0 01-.849-.849l2.742-2.741c.277-.277.526-.58.743-.906a1.56 1.56 0 00-1.947.038 12.79 12.79 0 01-3.83 2.424 3.154 3.154 0 00-1.44 1.07 5.09 5.09 0 00-1.052 3.18V28.8zm1.2 3h-.6a.6.6 0 000 1.2h.6a.6.6 0 000-1.2zm-9.482-18.96a.6.6 0 01.84-.12l1.893 1.42 4.45-6.673a.6.6 0 01.998.666l-4.801 7.2a.6.6 0 01-.86.147l-2.4-1.8a.6.6 0 01-.12-.84z" fill="#D62642"></path>
  </symbol>
  <!-- services -->
  <symbol fill="none" xmlns="http://www.w3.org/2000/svg" viewBox="0 0 74 64" id="quote">
    <path opacity=".1" fill-rule="evenodd" clip-rule="evenodd" d="M21.143 32H0V0h31.714v32c0 17.646-14.226 32-31.714 32V53.333c11.658 0 21.143-9.57 21.143-21.333zm21.143 0V0H74v32c0 17.646-14.226 32-31.714 32V53.333c11.657 0 21.142-9.57 21.142-21.333H42.286z" fill="#606C84"></path>
  </symbol>
  <symbol fill="none" xmlns="http://www.w3.org/2000/svg" viewBox="0 0 42 43" id="btn-icon">
    <path opacity=".4" fill-rule="evenodd" clip-rule="evenodd" d="M21 42.5c-11.598 0-21-9.402-21-21S9.402.5 21 .5s21 9.402 21 21-9.402 21-21 21zm9.764-21.579l-7.882-8.017a.795.795 0 00-1.137 0 .828.828 0 000 1.157l6.51 6.621h-16.45A.811.811 0 0011 21.5c0 .452.36.818.804.818h16.45l-6.51 6.621a.828.828 0 000 1.157.795.795 0 001.138 0l7.882-8.018a.828.828 0 000-1.157z" fill="#262B35"></path>
  </symbol>
</svg>